<svg version="1.1" id="Layer_1" xmlns="http://www.w3.org/2000/svg" xmlns:xlink="http://www.w3.org/1999/xlink" x="0px" y="0px"
	 width="100%" viewBox="0 0 580 386" enable-background="new 0 0 580 386" xml:space="preserve">
<path fill="#FFFFFF" opacity="1.000000" stroke="none" 
	d="
M412.000000,387.000000 
	C274.666687,387.000000 137.833405,387.000000 1.000073,387.000000 
	C1.000049,258.333405 1.000049,129.666794 1.000024,1.000143 
	C194.333237,1.000095 387.666473,1.000095 580.999756,1.000047 
	C580.999878,129.666519 580.999878,258.333038 580.999939,386.999786 
	C524.833313,387.000000 468.666656,387.000000 412.000000,387.000000 
M274.155396,84.990112 
	C274.279938,89.981674 274.462860,94.972610 274.516663,99.964928 
	C274.622925,109.826332 272.535400,118.250778 263.508026,124.555069 
	C255.136505,130.401306 249.680084,138.967728 249.037933,149.692596 
	C248.650253,156.167252 248.486954,162.665115 248.495758,169.152191 
	C248.568329,222.618149 248.699875,276.084015 248.827301,329.549927 
	C248.846756,337.710938 248.862244,345.873138 249.016144,354.032227 
	C249.157425,361.520813 252.042313,365.146088 259.574463,367.298279 
	C266.410889,368.161682 273.247284,369.025085 281.004028,370.004761 
	C293.941132,369.353821 306.931946,369.219971 319.797852,367.883575 
	C329.574585,366.868011 332.951477,362.135254 333.001862,352.452301 
	C333.076416,338.130035 333.170959,323.807556 333.164276,309.485229 
	C333.139832,256.864227 333.069366,204.243210 333.036194,151.622208 
	C333.030518,142.606598 329.269226,135.207352 323.229309,128.849548 
	C320.832092,126.326126 318.274536,123.860008 315.437714,121.869919 
	C310.319611,118.279419 308.226624,113.269234 308.023621,107.372704 
	C307.755066,99.572182 307.803070,91.760757 307.913116,83.052162 
	C307.909912,73.413361 307.918945,63.774536 307.900116,54.135765 
	C307.880249,43.954288 307.990906,33.767353 307.634125,23.597204 
	C307.578918,22.022926 305.385681,19.256020 304.084869,19.197971 
	C295.381256,18.809561 286.640778,18.795019 277.941895,19.239056 
	C276.632263,19.305906 274.609192,22.308048 274.416748,24.112434 
	C273.883484,29.112455 274.086334,34.197159 274.099548,39.248131 
	C274.138641,54.190910 274.226532,69.133568 274.155396,84.990112 
z"/>
<path fill="#121111" opacity="1.000000" stroke="none" 
	d="
M258.909973,366.859741 
	C252.042313,365.146088 249.157425,361.520813 249.016144,354.032227 
	C248.862244,345.873138 248.846756,337.710938 248.827301,329.549927 
	C248.699875,276.084015 248.568329,222.618149 248.495758,169.152191 
	C248.486954,162.665115 248.650253,156.167252 249.037933,149.692596 
	C249.680084,138.967728 255.136505,130.401306 263.508026,124.555069 
	C272.535400,118.250778 274.622925,109.826332 274.516663,99.964928 
	C274.462860,94.972610 274.279938,89.981674 274.625244,84.574066 
	C276.699921,84.186897 278.304749,84.215782 279.940247,84.685608 
	C279.982727,92.417389 279.879608,99.711311 280.074402,106.997253 
	C280.135071,109.266159 281.001862,111.513519 281.499603,113.770752 
	C283.209778,111.774033 284.965576,109.813393 286.594818,107.752693 
	C286.957428,107.294060 286.951996,106.487152 286.984955,105.833984 
	C287.351196,98.581444 287.691650,91.327591 288.503296,84.031998 
	C295.216705,83.977936 301.465851,83.965981 307.715027,83.954025 
	C307.803070,91.760757 307.755066,99.572182 308.023621,107.372704 
	C308.226624,113.269234 310.319611,118.279419 315.437714,121.869919 
	C318.274536,123.860008 320.832092,126.326126 323.229309,128.849548 
	C329.269226,135.207352 333.030518,142.606598 333.036194,151.622208 
	C333.069366,204.243210 333.139832,256.864227 333.164276,309.485229 
	C333.170959,323.807556 333.076416,338.130035 333.001862,352.452301 
	C332.951477,362.135254 329.574585,366.868011 319.797852,367.883575 
	C306.931946,369.219971 293.941132,369.353821 280.506165,369.486511 
	C280.045013,340.350891 280.081726,311.733551 280.577271,283.093811 
	C292.975433,282.698364 304.912872,282.187744 316.855042,282.026886 
	C321.036102,281.970551 322.167786,280.366699 322.149597,276.347260 
	C322.012695,246.095764 321.986938,215.842773 322.174896,185.591812 
	C322.203278,181.021912 320.487061,180.010223 316.349915,179.958099 
	C304.244568,179.805664 292.143890,179.281998 280.028839,178.441315 
	C280.016296,161.418518 280.016296,144.858170 280.016296,128.297836 
	C279.482269,127.892395 278.948242,127.486946 278.414215,127.081497 
	C273.404388,130.083969 267.845520,132.474869 263.578949,136.305222 
	C260.762299,138.833893 258.765503,143.287979 258.232880,147.133621 
	C257.189636,154.666061 257.149628,162.376984 257.182495,170.011932 
	C257.310089,199.652084 257.612579,229.291580 257.881409,258.931030 
	C258.207672,294.907410 258.565674,330.883514 258.909973,366.859741 
M321.260010,149.343979 
	C322.346497,152.574585 323.432953,155.805191 324.628693,159.360687 
	C326.758484,145.461212 319.375122,131.568100 310.234680,130.427734 
	C313.667816,136.221466 317.340179,142.418854 321.260010,149.343979 
z"/>
<path fill="#807E7C" opacity="1.000000" stroke="none" 
	d="
M280.118439,283.116180 
	C280.081726,311.733551 280.045013,340.350891 280.045990,369.428345 
	C273.247284,369.025085 266.410889,368.161682 259.242218,367.079010 
	C258.565674,330.883514 258.207672,294.907410 257.881409,258.931030 
	C257.612579,229.291580 257.310089,199.652084 257.182495,170.011932 
	C257.149628,162.376984 257.189636,154.666061 258.232880,147.133621 
	C258.765503,143.287979 260.762299,138.833893 263.578949,136.305222 
	C267.845520,132.474869 273.404388,130.083969 278.414215,127.081497 
	C278.948242,127.486946 279.482269,127.892395 280.016296,128.297836 
	C280.016296,144.858170 280.016296,161.418518 279.970673,178.453094 
	C279.925049,178.927322 279.875458,179.035172 279.443207,179.033020 
	C274.221954,179.361954 269.436798,179.778046 264.642639,179.995880 
	C261.122467,180.155823 259.842010,181.682312 259.856079,185.307587 
	C259.974152,215.709930 260.002411,246.113388 259.820068,276.515106 
	C259.797333,280.306854 261.363159,281.573608 264.559418,281.841339 
	C269.674225,282.269714 274.797791,282.594238 279.950928,283.023193 
	C279.984253,283.083649 280.118439,283.116180 280.118439,283.116180 
z"/>
<path fill="#891E24" opacity="1.000000" stroke="none" 
	d="
M279.909576,84.244659 
	C278.304749,84.215782 276.699921,84.186897 274.695190,84.117142 
	C274.226532,69.133568 274.138641,54.190910 274.099548,39.248131 
	C274.086334,34.197159 273.883484,29.112455 274.416748,24.112434 
	C274.609192,22.308048 276.632263,19.305906 277.941895,19.239056 
	C286.640778,18.795019 295.381256,18.809561 304.084869,19.197971 
	C305.385681,19.256020 307.578918,22.022926 307.634125,23.597204 
	C307.990906,33.767353 307.880249,43.954288 307.900116,54.135765 
	C307.918945,63.774536 307.909912,73.413361 307.814056,83.503098 
	C301.465851,83.965981 295.216705,83.977936 288.445923,84.025536 
	C287.924286,84.061180 287.876556,83.955956 287.921600,83.493851 
	C287.973694,75.375305 288.035858,67.718422 287.975159,60.062511 
	C287.879364,47.978500 287.722839,35.894760 287.509796,23.812361 
	C287.495239,22.987127 286.829224,21.493000 286.408722,21.472212 
	C284.513794,21.378534 282.530090,21.473692 280.727386,22.005751 
	C280.111542,22.187529 279.561554,23.864298 279.610992,24.825636 
	C279.978241,31.966442 280.889557,39.098793 280.895081,46.234371 
	C280.904907,58.841488 280.393372,71.449005 280.065613,84.116776 
	C280.031219,84.177193 279.909576,84.244659 279.909576,84.244659 
z"/>
<path fill="#8A191F" opacity="1.000000" stroke="none" 
	d="
M279.983215,178.915558 
	C292.143890,179.281998 304.244568,179.805664 316.349915,179.958099 
	C320.487061,180.010223 322.203278,181.021912 322.174896,185.591812 
	C321.986938,215.842773 322.012695,246.095764 322.149597,276.347260 
	C322.167786,280.366699 321.036102,281.970551 316.855042,282.026886 
	C304.912872,282.187744 292.975433,282.698364 280.577271,283.093811 
	C280.118439,283.116180 279.984253,283.083649 279.984863,282.560059 
	C279.948822,247.702698 279.912140,213.368942 279.875488,179.035172 
	C279.875458,179.035172 279.925049,178.927322 279.983215,178.915558 
z"/>
<path fill="#807F7D" opacity="1.000000" stroke="none" 
	d="
M287.981689,84.067642 
	C287.691650,91.327591 287.351196,98.581444 286.984955,105.833984 
	C286.951996,106.487152 286.957428,107.294060 286.594818,107.752693 
	C284.965576,109.813393 283.209778,111.774033 281.499603,113.770752 
	C281.001862,111.513519 280.135071,109.266159 280.074402,106.997253 
	C279.879608,99.711311 279.982727,92.417389 279.940247,84.685608 
	C279.909576,84.244659 280.031219,84.177193 280.495789,84.091766 
	C283.265747,83.989548 285.571167,83.972748 287.876556,83.955956 
	C287.876556,83.955956 287.924286,84.061180 287.981689,84.067642 
z"/>
<path fill="#777775" opacity="1.000000" stroke="none" 
	d="
M321.136292,148.980103 
	C317.340179,142.418854 313.667816,136.221466 310.234680,130.427734 
	C319.375122,131.568100 326.758484,145.461212 324.628693,159.360687 
	C323.432953,155.805191 322.346497,152.574585 321.136292,148.980103 
z"/>
<path fill="#A0202D" opacity="1.000000" stroke="none" 
	d="
M279.443237,179.033020 
	C279.912140,213.368942 279.948822,247.702698 279.951538,282.499573 
	C274.797791,282.594238 269.674225,282.269714 264.559418,281.841339 
	C261.363159,281.573608 259.797333,280.306854 259.820068,276.515106 
	C260.002411,246.113388 259.974152,215.709930 259.856079,185.307587 
	C259.842010,181.682312 261.122467,180.155823 264.642639,179.995880 
	C269.436798,179.778046 274.221954,179.361954 279.443237,179.033020 
z"/>
<path fill="#A0202D" opacity="1.000000" stroke="none" 
	d="
M287.921600,83.493851 
	C285.571167,83.972748 283.265747,83.989548 280.530212,84.031349 
	C280.393372,71.449005 280.904907,58.841488 280.895081,46.234371 
	C280.889557,39.098793 279.978241,31.966442 279.610992,24.825636 
	C279.561554,23.864298 280.111542,22.187529 280.727386,22.005751 
	C282.530090,21.473692 284.513794,21.378534 286.408722,21.472212 
	C286.829224,21.493000 287.495239,22.987127 287.509796,23.812361 
	C287.722839,35.894760 287.879364,47.978500 287.975159,60.062511 
	C288.035858,67.718422 287.973694,75.375305 287.921600,83.493851 
z"/>
</svg>